<svg xmlns="http://www.w3.org/2000/svg" width="96" height="96" viewBox="0 0 96 96" fill="none"><defs><linearGradient id="b" x1="11" y1="0" x2="88" y2="96" gradientUnits="userSpaceOnUse"><stop stop-color="#E9B786"/><stop offset=".5" stop-color="#CD896D"/><stop offset="1" stop-color="#A66263"/></linearGradient><linearGradient id="p" x1="41" y1="23" x2="59" y2="76" gradientUnits="userSpaceOnUse"><stop stop-color="#FFFCED"/><stop offset="1" stop-color="#F3E7D4"/></linearGradient></defs><rect width="96" height="96" rx="25" fill="url(#b)"/><rect x=".6" y=".6" width="94.8" height="94.8" rx="24.4" stroke="#fff" stroke-opacity=".26" stroke-width="1.2"/><rect x="24" y="24" width="46" height="52" rx="5" transform="rotate(-9 24 24)" fill="#843E41" fill-opacity=".2"/><rect x="25" y="21" width="46" height="53" rx="5" transform="rotate(7 25 21)" fill="url(#p)"/><path d="m31 29 31.8 3.9-3.4 27.8-31.8-3.9L31 29Z" fill="#8DA8AA"/><path d="m27.6 56.8 3.1-4.9 9.6-11.5 8.6 12.4 6.2-5.8 5.5 11.7-.2 2-32.8-3.9Z" fill="#536E73"/><circle cx="53.3" cy="39.8" r="4.3" fill="#F5DAB4"/><path d="m31.2 65 15.8 1.9" stroke="#CBB49F" stroke-width="2" stroke-linecap="round"/></svg>
